<svg width="24" height="25" viewBox="0 0 24 25" fill="none" xmlns="http://www.w3.org/2000/svg">
<g clip-path="url(#clip0_200_7486)">
<path d="M11 7.85364H13V9.85364H11V7.85364ZM11 11.8536H13V17.8536H11V11.8536ZM12 2.85364C6.48 2.85364 2 7.33364 2 12.8536C2 18.3736 6.48 22.8536 12 22.8536C17.52 22.8536 22 18.3736 22 12.8536C22 7.33364 17.52 2.85364 12 2.85364ZM12 20.8536C7.59 20.8536 4 17.2636 4 12.8536C4 8.44364 7.59 4.85364 12 4.85364C16.41 4.85364 20 8.44364 20 12.8536C20 17.2636 16.41 20.8536 12 20.8536Z" fill="#767676"/>
</g>
<defs>
<clipPath id="clip0_200_7486">
<rect width="24" height="24" fill="white" transform="translate(0 0.853638)"/>
</clipPath>
</defs>
</svg>
