<svg width="279" height="136" viewBox="0 0 279 136" fill="none" xmlns="http://www.w3.org/2000/svg">
<path d="M17.4173 73.152C11.9933 73.152 8.00925 71.784 5.46525 69.048C2.92125 66.312 1.64925 61.776 1.64925 55.44C1.64925 50.4 2.48925 44.976 4.16925 39.168C5.89725 33.36 8.63325 28.392 12.3773 24.264C16.1693 20.088 20.9693 18 26.7773 18C30.3773 18 33.2813 18.792 35.4893 20.376C37.6973 21.96 38.8013 24.384 38.8013 27.648C38.8013 29.712 38.3933 31.344 37.5773 32.544C36.7613 33.696 35.4893 34.272 33.7613 34.272C32.0333 34.272 30.6653 33.648 29.6573 32.4C30.5213 31.968 31.2893 31.104 31.9613 29.808C32.6333 28.512 32.9693 27.168 32.9693 25.776C32.9693 24.48 32.6093 23.424 31.8893 22.608C31.2173 21.792 30.1133 21.384 28.5773 21.384C26.0333 21.384 23.6093 23.136 21.3053 26.64C19.0013 30.096 17.1293 34.464 15.6893 39.744C14.2973 45.024 13.6013 50.112 13.6013 55.008C13.6013 58.656 14.2253 61.44 15.4733 63.36C16.7213 65.28 18.9773 66.24 22.2413 66.24C25.0733 66.24 27.6893 65.616 30.0893 64.368C32.4893 63.12 34.5533 61.344 36.2812 59.04L37.9373 59.76C36.7373 62.784 34.9613 65.304 32.6093 67.32C30.2573 69.336 27.7373 70.824 25.0493 71.784C22.3613 72.696 19.8173 73.152 17.4173 73.152ZM46.3663 72.432C42.8143 72.432 40.0543 71.52 38.0863 69.696C36.1183 67.824 35.1343 64.92 35.1343 60.984C35.1343 57.672 35.7823 54.024 37.0783 50.04C38.3743 46.056 40.4863 42.624 43.4143 39.744C46.3423 36.816 50.0623 35.352 54.5743 35.352C59.8543 35.352 62.4943 37.656 62.4943 42.264C62.4943 44.952 61.7263 47.424 60.1903 49.68C58.6543 51.936 56.6143 53.76 54.0703 55.152C51.5263 56.496 48.8143 57.264 45.9343 57.456C45.8383 58.896 45.7903 59.856 45.7903 60.336C45.7903 62.688 46.1983 64.296 47.0143 65.16C47.8303 65.976 49.1503 66.384 50.9743 66.384C53.5663 66.384 55.7743 65.784 57.5983 64.584C59.4703 63.384 61.5103 61.56 63.7183 59.112H66.1663C60.8383 67.992 54.2383 72.432 46.3663 72.432ZM46.5103 54C48.2863 53.904 49.9663 53.28 51.5503 52.128C53.1823 50.976 54.4783 49.512 55.4383 47.736C56.4463 45.96 56.9503 44.088 56.9503 42.12C56.9503 40.152 56.3503 39.168 55.1503 39.168C53.4223 39.168 51.7183 40.68 50.0383 43.704C48.4063 46.728 47.2303 50.16 46.5103 54ZM68.5991 36H78.9671L78.0311 40.464C79.6631 39.024 81.1271 37.92 82.4231 37.152C83.7671 36.384 85.2071 36 86.7431 36C88.2791 36 89.4791 36.528 90.3431 37.584C91.2551 38.64 91.7111 39.912 91.7111 41.4C91.7111 42.792 91.2551 44.016 90.3431 45.072C89.4311 46.128 88.1591 46.656 86.5271 46.656C85.4711 46.656 84.7511 46.416 84.3671 45.936C84.0311 45.408 83.7671 44.664 83.5751 43.704C83.4311 43.08 83.2871 42.624 83.1431 42.336C82.9991 42.048 82.7351 41.904 82.3511 41.904C81.3431 41.904 80.4791 42.12 79.7591 42.552C79.0871 42.936 78.1991 43.632 77.0951 44.64L71.3351 72H60.9671L68.5991 36ZM97.9014 72.432C95.5974 72.432 93.7254 71.712 92.2854 70.272C90.8934 68.832 90.1974 66.672 90.1974 63.792C90.1974 62.592 90.3894 61.032 90.7734 59.112L95.0934 38.88H92.7174L93.2934 36H95.6694L97.8294 26.064L108.485 24.624L106.037 36H110.357L109.781 38.88H105.461L100.853 60.48C100.661 61.2 100.565 61.968 100.565 62.784C100.565 63.744 100.781 64.44 101.213 64.872C101.693 65.256 102.461 65.448 103.517 65.448C104.909 65.448 106.205 64.872 107.405 63.72C108.605 62.52 109.469 60.984 109.997 59.112H113.021C111.245 64.296 108.965 67.824 106.181 69.696C103.397 71.52 100.637 72.432 97.9014 72.432ZM121.993 32.112C120.409 32.112 119.065 31.56 117.961 30.456C116.857 29.352 116.305 28.008 116.305 26.424C116.305 24.84 116.857 23.496 117.961 22.392C119.065 21.24 120.409 20.664 121.993 20.664C123.577 20.664 124.921 21.24 126.025 22.392C127.177 23.496 127.753 24.84 127.753 26.424C127.753 28.008 127.177 29.352 126.025 30.456C124.921 31.56 123.577 32.112 121.993 32.112ZM117.097 72.432C114.793 72.432 112.921 71.712 111.481 70.272C110.089 68.832 109.393 66.672 109.393 63.792C109.393 62.592 109.585 61.032 109.969 59.112L114.865 36H125.233L120.049 60.48C119.857 61.2 119.761 61.968 119.761 62.784C119.761 63.744 119.977 64.44 120.409 64.872C120.889 65.256 121.657 65.448 122.713 65.448C124.105 65.448 125.401 64.872 126.601 63.72C127.801 62.52 128.665 60.984 129.193 59.112H132.217C130.441 64.296 128.161 67.824 125.377 69.696C122.593 71.52 119.833 72.432 117.097 72.432ZM123.188 90C120.548 90 118.412 89.256 116.78 87.768C115.1 86.328 114.26 84.384 114.26 81.936C114.26 79.92 114.836 78.264 115.988 76.968C117.14 75.672 118.556 74.64 120.236 73.872C121.916 73.104 124.076 72.288 126.716 71.424L134.708 33.552C136.004 27.6 138.164 23.544 141.188 21.384C144.212 19.176 147.668 18.072 151.556 18.072C155.156 18.072 158.204 18.672 160.7 19.872C163.196 21.072 164.444 23.232 164.444 26.352C164.444 28.368 163.892 29.856 162.788 30.816C161.732 31.728 160.388 32.184 158.756 32.184C157.508 32.184 156.476 31.896 155.66 31.32C154.844 30.696 154.436 29.688 154.436 28.296C154.436 27.384 154.652 26.568 155.084 25.848C155.564 25.128 156.164 24.768 156.884 24.768C157.22 24.768 157.412 24.792 157.46 24.84C157.412 23.88 157.028 23.16 156.308 22.68C155.636 22.2 154.7 21.96 153.5 21.96C151.388 21.96 149.684 22.728 148.388 24.264C147.14 25.8 146.3 27.744 145.868 30.096L144.644 36H150.404L149.828 38.88H144.068L135.86 77.76C134.9 82.272 133.244 85.44 130.892 87.264C128.54 89.088 125.972 90 123.188 90ZM155.516 72.432C153.212 72.432 151.34 71.712 149.9 70.272C148.508 68.832 147.812 66.672 147.812 63.792C147.812 62.592 148.004 61.032 148.388 59.112L153.284 36H163.652L158.468 60.48C158.276 61.2 158.18 61.968 158.18 62.784C158.18 63.744 158.396 64.44 158.828 64.872C159.308 65.256 160.076 65.448 161.132 65.448C162.524 65.448 163.82 64.872 165.02 63.72C166.22 62.52 167.084 60.984 167.612 59.112H170.636C168.86 64.296 166.58 67.824 163.796 69.696C161.012 71.52 158.252 72.432 155.516 72.432ZM121.172 83.592C121.988 83.592 122.804 83.136 123.62 82.224C124.388 81.312 124.964 79.896 125.348 77.976L126.212 73.8C123.764 74.568 121.82 75.528 120.38 76.68C118.94 77.88 118.22 79.224 118.22 80.712C118.22 81.768 118.556 82.512 119.228 82.944C119.9 83.376 120.548 83.592 121.172 83.592ZM177.921 72.432C174.369 72.432 171.609 71.52 169.641 69.696C167.673 67.824 166.689 64.92 166.689 60.984C166.689 57.672 167.337 54.024 168.633 50.04C169.977 46.056 172.089 42.624 174.969 39.744C177.897 36.816 181.593 35.352 186.057 35.352C188.937 35.352 190.977 35.976 192.177 37.224C193.425 38.472 194.049 40.056 194.049 41.976C194.049 43.656 193.689 44.952 192.969 45.864C192.249 46.776 191.337 47.232 190.233 47.232C189.417 47.232 188.577 46.944 187.713 46.368C188.289 44.784 188.577 43.368 188.577 42.12C188.577 41.208 188.409 40.488 188.073 39.96C187.737 39.432 187.233 39.168 186.561 39.168C185.121 39.168 183.681 40.344 182.241 42.696C180.801 45.048 179.625 47.904 178.713 51.264C177.801 54.624 177.345 57.648 177.345 60.336C177.345 62.688 177.753 64.296 178.569 65.16C179.385 65.976 180.705 66.384 182.529 66.384C185.121 66.384 187.329 65.784 189.153 64.584C191.025 63.384 193.065 61.56 195.273 59.112H197.721C192.393 67.992 185.793 72.432 177.921 72.432ZM203.898 72.432C201.162 72.432 198.882 71.496 197.058 69.624C195.234 67.752 194.322 64.824 194.322 60.84C194.322 57.288 195.018 53.568 196.41 49.68C197.85 45.744 199.962 42.432 202.746 39.744C205.578 37.008 208.938 35.64 212.826 35.64C214.794 35.64 216.258 35.976 217.218 36.648C218.178 37.32 218.658 38.208 218.658 39.312V39.816L219.45 36H229.818L224.634 60.48C224.442 61.2 224.346 61.968 224.346 62.784C224.346 64.848 225.33 65.88 227.298 65.88C228.642 65.88 229.794 65.256 230.754 64.008C231.762 62.76 232.554 61.128 233.13 59.112H236.154C234.378 64.296 232.17 67.824 229.53 69.696C226.938 71.52 224.322 72.432 221.682 72.432C219.666 72.432 218.034 71.88 216.786 70.776C215.586 69.624 214.866 67.968 214.626 65.808C213.234 67.776 211.674 69.384 209.946 70.632C208.266 71.832 206.25 72.432 203.898 72.432ZM208.578 65.448C209.778 65.448 210.954 64.896 212.106 63.792C213.306 62.64 214.122 61.08 214.554 59.112L218.01 42.84C218.01 42.216 217.77 41.616 217.29 41.04C216.81 40.416 216.066 40.104 215.058 40.104C213.138 40.104 211.41 41.232 209.874 43.488C208.338 45.696 207.138 48.384 206.274 51.552C205.41 54.672 204.978 57.432 204.978 59.832C204.978 62.232 205.314 63.768 205.986 64.44C206.706 65.112 207.57 65.448 208.578 65.448ZM240.284 72.432C237.98 72.432 236.108 71.712 234.668 70.272C233.276 68.832 232.58 66.672 232.58 63.792C232.58 62.592 232.772 61.032 233.156 59.112L237.476 38.88H235.1L235.676 36H238.052L240.212 26.064L250.868 24.624L248.42 36H252.74L252.164 38.88H247.844L243.236 60.48C243.044 61.2 242.948 61.968 242.948 62.784C242.948 63.744 243.164 64.44 243.596 64.872C244.076 65.256 244.844 65.448 245.9 65.448C247.292 65.448 248.588 64.872 249.788 63.72C250.988 62.52 251.852 60.984 252.38 59.112H255.404C253.628 64.296 251.348 67.824 248.564 69.696C245.78 71.52 243.02 72.432 240.284 72.432ZM262.504 72.432C259 72.432 256.264 71.52 254.296 69.696C252.328 67.824 251.344 64.92 251.344 60.984C251.344 57.672 251.992 54.024 253.288 50.04C254.584 46.056 256.696 42.624 259.624 39.744C262.552 36.816 266.272 35.352 270.784 35.352C276.064 35.352 278.704 37.656 278.704 42.264C278.704 44.952 277.936 47.424 276.4 49.68C274.864 51.936 272.824 53.76 270.28 55.152C267.736 56.496 265.024 57.264 262.144 57.456C262.048 58.512 262 59.232 262 59.616C262 63.6 263.488 65.592 266.464 65.592C267.808 65.592 269.248 65.232 270.784 64.512C272.32 63.792 273.712 62.88 274.96 61.776C273.664 68.88 269.512 72.432 262.504 72.432ZM262.648 54C264.472 53.952 266.176 53.352 267.76 52.2C269.392 51.048 270.688 49.584 271.648 47.808C272.656 45.984 273.16 44.088 273.16 42.12C273.16 40.152 272.56 39.168 271.36 39.168C269.68 39.168 268 40.704 266.32 43.776C264.688 46.8 263.464 50.208 262.648 54Z" fill="#E19200"/>
<path d="M20.13 128.24C18.01 128.24 16.1 127.78 14.4 126.86C12.7 125.92 11.36 124.63 10.38 122.99C9.42 121.35 8.94 119.52 8.94 117.5C8.94 115.48 9.42 113.65 10.38 112.01C11.36 110.37 12.7 109.09 14.4 108.17C16.1 107.23 18.01 106.76 20.13 106.76C22.23 106.76 24.13 107.23 25.83 108.17C27.53 109.09 28.86 110.37 29.82 112.01C30.78 113.63 31.26 115.46 31.26 117.5C31.26 119.54 30.78 121.38 29.82 123.02C28.86 124.64 27.53 125.92 25.83 126.86C24.13 127.78 22.23 128.24 20.13 128.24ZM20.13 125.57C21.67 125.57 23.05 125.22 24.27 124.52C25.51 123.82 26.48 122.86 27.18 121.64C27.9 120.4 28.26 119.02 28.26 117.5C28.26 115.98 27.9 114.61 27.18 113.39C26.48 112.15 25.51 111.18 24.27 110.48C23.05 109.78 21.67 109.43 20.13 109.43C18.59 109.43 17.19 109.78 15.93 110.48C14.69 111.18 13.71 112.15 12.99 113.39C12.29 114.61 11.94 115.98 11.94 117.5C11.94 119.02 12.29 120.4 12.99 121.64C13.71 122.86 14.69 123.82 15.93 124.52C17.19 125.22 18.59 125.57 20.13 125.57ZM38.8453 109.61V116.93H49.3753V119.51H38.8453V128H35.8453V107H50.6653V109.61H38.8453ZM72.3349 128.24C70.2349 128.24 68.3349 127.78 66.6349 126.86C64.9549 125.92 63.6349 124.64 62.6749 123.02C61.7149 121.38 61.2349 119.54 61.2349 117.5C61.2349 115.46 61.7149 113.63 62.6749 112.01C63.6349 110.37 64.9649 109.09 66.6649 108.17C68.3649 107.23 70.2649 106.76 72.3649 106.76C74.0049 106.76 75.5049 107.04 76.8649 107.6C78.2249 108.14 79.3849 108.95 80.3449 110.03L78.3949 111.92C76.8149 110.26 74.8449 109.43 72.4849 109.43C70.9249 109.43 69.5149 109.78 68.2549 110.48C66.9949 111.18 66.0049 112.15 65.2849 113.39C64.5849 114.61 64.2349 115.98 64.2349 117.5C64.2349 119.02 64.5849 120.4 65.2849 121.64C66.0049 122.86 66.9949 123.82 68.2549 124.52C69.5149 125.22 70.9249 125.57 72.4849 125.57C74.8249 125.57 76.7949 124.73 78.3949 123.05L80.3449 124.94C79.3849 126.02 78.2149 126.84 76.8349 127.4C75.4749 127.96 73.9749 128.24 72.3349 128.24ZM93.6652 128.24C91.5452 128.24 89.6352 127.78 87.9352 126.86C86.2352 125.92 84.8952 124.63 83.9152 122.99C82.9552 121.35 82.4752 119.52 82.4752 117.5C82.4752 115.48 82.9552 113.65 83.9152 112.01C84.8952 110.37 86.2352 109.09 87.9352 108.17C89.6352 107.23 91.5452 106.76 93.6652 106.76C95.7652 106.76 97.6652 107.23 99.3652 108.17C101.065 109.09 102.395 110.37 103.355 112.01C104.315 113.63 104.795 115.46 104.795 117.5C104.795 119.54 104.315 121.38 103.355 123.02C102.395 124.64 101.065 125.92 99.3652 126.86C97.6652 127.78 95.7652 128.24 93.6652 128.24ZM93.6652 125.57C95.2052 125.57 96.5852 125.22 97.8052 124.52C99.0452 123.82 100.015 122.86 100.715 121.64C101.435 120.4 101.795 119.02 101.795 117.5C101.795 115.98 101.435 114.61 100.715 113.39C100.015 112.15 99.0452 111.18 97.8052 110.48C96.5852 109.78 95.2052 109.43 93.6652 109.43C92.1252 109.43 90.7252 109.78 89.4652 110.48C88.2252 111.18 87.2452 112.15 86.5252 113.39C85.8252 114.61 85.4752 115.98 85.4752 117.5C85.4752 119.02 85.8252 120.4 86.5252 121.64C87.2452 122.86 88.2252 123.82 89.4652 124.52C90.7252 125.22 92.1252 125.57 93.6652 125.57ZM128.85 128L128.82 112.7L121.23 125.45H119.85L112.26 112.79V128H109.38V107H111.84L120.6 121.76L129.24 107H131.7L131.73 128H128.85ZM146.223 107C148.943 107 151.083 107.65 152.643 108.95C154.203 110.25 154.983 112.04 154.983 114.32C154.983 116.6 154.203 118.39 152.643 119.69C151.083 120.99 148.943 121.64 146.223 121.64H141.033V128H138.033V107H146.223ZM146.133 119.03C148.033 119.03 149.483 118.63 150.483 117.83C151.483 117.01 151.983 115.84 151.983 114.32C151.983 112.8 151.483 111.64 150.483 110.84C149.483 110.02 148.033 109.61 146.133 109.61H141.033V119.03H146.133ZM159.39 107H162.39V125.39H173.76V128H159.39V107ZM192.443 125.39V128H177.203V107H192.023V109.61H180.203V116.06H190.733V118.61H180.203V125.39H192.443ZM201.47 109.61H194.27V107H211.64V109.61H204.44V128H201.47V109.61ZM214.908 107H217.908V128H214.908V107ZM233.675 128.24C231.555 128.24 229.645 127.78 227.945 126.86C226.245 125.92 224.905 124.63 223.925 122.99C222.965 121.35 222.485 119.52 222.485 117.5C222.485 115.48 222.965 113.65 223.925 112.01C224.905 110.37 226.245 109.09 227.945 108.17C229.645 107.23 231.555 106.76 233.675 106.76C235.775 106.76 237.675 107.23 239.375 108.17C241.075 109.09 242.405 110.37 243.365 112.01C244.325 113.63 244.805 115.46 244.805 117.5C244.805 119.54 244.325 121.38 243.365 123.02C242.405 124.64 241.075 125.92 239.375 126.86C237.675 127.78 235.775 128.24 233.675 128.24ZM233.675 125.57C235.215 125.57 236.595 125.22 237.815 124.52C239.055 123.82 240.025 122.86 240.725 121.64C241.445 120.4 241.805 119.02 241.805 117.5C241.805 115.98 241.445 114.61 240.725 113.39C240.025 112.15 239.055 111.18 237.815 110.48C236.595 109.78 235.215 109.43 233.675 109.43C232.135 109.43 230.735 109.78 229.475 110.48C228.235 111.18 227.255 112.15 226.535 113.39C225.835 114.61 225.485 115.98 225.485 117.5C225.485 119.02 225.835 120.4 226.535 121.64C227.255 122.86 228.235 123.82 229.475 124.52C230.735 125.22 232.135 125.57 233.675 125.57ZM267.45 107V128H264.99L252.39 112.34V128H249.39V107H251.85L264.45 122.66V107H267.45Z" fill="black"/>
</svg>
