<svg width="37" height="36" viewBox="0 0 37 36" fill="none" xmlns="http://www.w3.org/2000/svg">
<g clip-path="url(#clip0_1236_4198)">
<path d="M18.5 3C10.22 3 3.5 9.72 3.5 18C3.5 26.28 10.22 33 18.5 33C26.78 33 33.5 26.28 33.5 18C33.5 9.72 26.78 3 18.5 3ZM18.5 30C11.885 30 6.5 24.615 6.5 18C6.5 11.385 11.885 6 18.5 6C25.115 6 30.5 11.385 30.5 18C30.5 24.615 25.115 30 18.5 30ZM25.385 11.37L15.5 21.255L11.615 17.385L9.5 19.5L15.5 25.5L27.5 13.5L25.385 11.37Z" fill="#2C2F7E"/>
</g>
<defs>
<clipPath id="clip0_1236_4198">
<rect width="36" height="36" fill="white" transform="translate(0.5)"/>
</clipPath>
</defs>
</svg>
