<svg width="24" height="25" viewBox="0 0 24 25" fill="none" xmlns="http://www.w3.org/2000/svg">
<path d="M17 14.8926V11.8871C17 11.7076 17 11.6179 16.9727 11.5386C16.9485 11.4686 16.9091 11.4047 16.8572 11.3518C16.7986 11.2919 16.7183 11.2518 16.5578 11.1715L12 8.89264M4 9.89264V16.6993C4 17.0712 4 17.2571 4.05802 17.4199C4.10931 17.5639 4.1929 17.6941 4.30238 17.8007C4.42622 17.9213 4.59527 17.9988 4.93335 18.1538L11.3334 21.0871C11.5786 21.1995 11.7012 21.2557 11.8289 21.2779C11.9421 21.2975 12.0579 21.2975 12.1711 21.2779C12.2988 21.2557 12.4214 21.1995 12.6666 21.0871L19.0666 18.1538C19.4047 17.9988 19.5738 17.9213 19.6976 17.8007C19.8071 17.6941 19.8907 17.5639 19.942 17.4199C20 17.2571 20 17.0712 20 16.6993V9.89264M2 8.89264L11.6422 4.07153C11.7734 4.00594 11.839 3.97314 11.9078 3.96023C11.9687 3.9488 12.0313 3.9488 12.0922 3.96023C12.161 3.97314 12.2266 4.00594 12.3578 4.07153L22 8.89264L12.3578 13.7138C12.2266 13.7793 12.161 13.8121 12.0922 13.8251C12.0313 13.8365 11.9687 13.8365 11.9078 13.8251C11.839 13.8121 11.7734 13.7793 11.6422 13.7138L2 8.89264Z" stroke="#0F172A" stroke-width="2" stroke-linecap="round" stroke-linejoin="round"/>
</svg>
