<svg width="24" height="25" viewBox="0 0 24 25" fill="none" xmlns="http://www.w3.org/2000/svg">
<path d="M5 5.38209C5 4.41093 5 3.92534 5.20249 3.65767C5.37889 3.42448 5.64852 3.28018 5.9404 3.26276C6.27544 3.24275 6.67946 3.5121 7.48752 4.05081L18.0031 11.0612C18.6708 11.5063 19.0046 11.7289 19.1209 12.0094C19.2227 12.2546 19.2227 12.5303 19.1209 12.7755C19.0046 13.0561 18.6708 13.2786 18.0031 13.7237L7.48752 20.7341C6.67946 21.2728 6.27544 21.5422 5.9404 21.5222C5.64852 21.5047 5.37889 21.3604 5.20249 21.1273C5 20.8596 5 20.374 5 19.4028V5.38209Z" stroke="#0F172A" stroke-width="2" stroke-linecap="round" stroke-linejoin="round"/>
</svg>
