<svg width="24" height="25" viewBox="0 0 24 25" fill="none" xmlns="http://www.w3.org/2000/svg">
<path d="M7.86866 15.8525L7 22.3926L11.5884 19.6395C11.7381 19.5497 11.8129 19.5049 11.8928 19.4873C11.9634 19.4718 12.0366 19.4718 12.1072 19.4873C12.1871 19.5049 12.2619 19.5497 12.4116 19.6395L17 22.3926L16.1319 15.8497M16.4259 4.64146C16.5803 5.01498 16.8768 5.31188 17.25 5.46688L18.5589 6.00906C18.9325 6.16379 19.2292 6.46057 19.384 6.83412C19.5387 7.20767 19.5387 7.62739 19.384 8.00093L18.8422 9.30893C18.6874 9.68264 18.6872 10.1028 18.8427 10.4763L19.3835 11.7839C19.4602 11.9689 19.4997 12.1673 19.4997 12.3675C19.4998 12.5678 19.4603 12.7662 19.3837 12.9512C19.3071 13.1362 19.1947 13.3043 19.0531 13.4459C18.9114 13.5875 18.7433 13.6998 18.5582 13.7764L17.2503 14.3182C16.8768 14.4727 16.5799 14.7691 16.4249 15.1424L15.8827 16.4513C15.728 16.8249 15.4312 17.1217 15.0577 17.2764C14.6841 17.4311 14.2644 17.4311 13.8909 17.2764L12.583 16.7346C12.2094 16.5803 11.7899 16.5806 11.4166 16.7355L10.1077 17.2769C9.73434 17.4313 9.31501 17.4311 8.94178 17.2765C8.56854 17.1219 8.27194 16.8255 8.11711 16.4523L7.57479 15.143C7.42035 14.7695 7.12391 14.4726 6.75064 14.3176L5.44175 13.7754C5.06838 13.6208 4.77169 13.3242 4.61691 12.9508C4.46213 12.5775 4.46192 12.158 4.61633 11.7845L5.1581 10.4765C5.31244 10.1029 5.31213 9.68337 5.15722 9.31004L4.61623 8.00017C4.53953 7.81515 4.50003 7.61684 4.5 7.41655C4.49997 7.21627 4.5394 7.01794 4.61604 6.8329C4.69268 6.64786 4.80504 6.47974 4.94668 6.33814C5.08832 6.19654 5.25647 6.08424 5.44152 6.00766L6.74947 5.46587C7.12265 5.31156 7.41936 5.01548 7.57448 4.64262L8.11664 3.33369C8.27136 2.96014 8.56813 2.66335 8.94167 2.50862C9.3152 2.3539 9.7349 2.3539 10.1084 2.50862L11.4164 3.05041C11.7899 3.20476 12.2095 3.20445 12.5828 3.04954L13.8922 2.50946C14.2657 2.35482 14.6853 2.35485 15.0588 2.50955C15.4322 2.66425 15.729 2.96095 15.8837 3.3344L16.426 4.64373L16.4259 4.64146Z" stroke="#0F172A" stroke-width="2" stroke-linecap="round" stroke-linejoin="round"/>
</svg>
